inDegrees=no
num_controls=7
num_derivatives=13
num_iterations=120
num_multipliers=7
num_parameters=0
num_slacks=7
num_states=26
objective=0.500299
objective_accelerations=0.010172
objective_balance=0.003837
objective_effort=0.010427
objective_height=0.388717
objective_ligament=0.087146
solver_duration=1701.184594
status=Solve_Succeeded
success=true
DataType=double
version=3
OpenSimVersion=4.5
endheader
time	/jointset/ground_pelvis/pelvis_tilt/value	/jointset/ground_pelvis/pelvis_tx/value	/jointset/ground_pelvis/pelvis_ty/value	/jointset/hip_l/hip_flexion_l/value	/jointset/hip_l/hip_adduction_l/value	/jointset/hip_l/hip_rotation_l/value	/jointset/back/lumbar_extension/value	/jointset/patellofemoral_l/patellar_flexion_l/value	/jointset/knee_l/knee_flexion_l/value	/jointset/knee_l/knee_adduction_l/value	/jointset/knee_l/knee_rotation_l/value	/jointset/ankle_l/ankle_angle_l/value	/jointset/subtalar_l/subtalar_angle_l/value	/jointset/ground_pelvis/pelvis_tilt/speed	/jointset/ground_pelvis/pelvis_tx/speed	/jointset/ground_pelvis/pelvis_ty/speed	/jointset/hip_l/hip_flexion_l/speed	/jointset/hip_l/hip_adduction_l/speed	/jointset/hip_l/hip_rotation_l/speed	/jointset/back/lumbar_extension/speed	/jointset/patellofemoral_l/patellar_flexion_l/speed	/jointset/knee_l/knee_flexion_l/speed	/jointset/knee_l/knee_adduction_l/speed	/jointset/knee_l/knee_rotation_l/speed	/jointset/ankle_l/ankle_angle_l/speed	/jointset/subtalar_l/subtalar_angle_l/speed	/forceset/tau_hip_flexion_l	/forceset/tau_hip_adduction_l	/forceset/tau_hip_rotation_l	/forceset/tau_knee_flexion_l	/forceset/tau_ankle_angle_l	/forceset/tau_subtalar_angle_l	/forceset/tau_lumbar_extension	lambda_cid13_p0	lambda_cid13_p1	lambda_cid13_p2	lambda_cid13_p3	lambda_cid13_p4	lambda_cid13_p5	lambda_cid14_p0	/jointset/ground_pelvis/pelvis_tilt/accel	/jointset/ground_pelvis/pelvis_tx/accel	/jointset/ground_pelvis/pelvis_ty/accel	/jointset/hip_l/hip_flexion_l/accel	/jointset/hip_l/hip_adduction_l/accel	/jointset/hip_l/hip_rotation_l/accel	/jointset/back/lumbar_extension/accel	/jointset/patellofemoral_l/patellar_flexion_l/accel	/jointset/knee_l/knee_flexion_l/accel	/jointset/knee_l/knee_adduction_l/accel	/jointset/knee_l/knee_rotation_l/accel	/jointset/ankle_l/ankle_angle_l/accel	/jointset/subtalar_l/subtalar_angle_l/accel	gamma_cid13_p0	gamma_cid13_p1	gamma_cid13_p2	gamma_cid13_p3	gamma_cid13_p4	gamma_cid13_p5	gamma_cid14_p0
0.5	0.03432450992705563	0.008312929819420384	0.919254410945132	0.3406461077116579	-0.2431885830873646	-0.3102001210374036	-0.6744392150035403	0.306094399885645	0.3060943998857225	-0.04529643000415941	-0.1744555416096492	-0.01300792056013674	0.0505743797886868	0.1556542947424006	-0.08481915184898971	-0.009392919844594538	0.01528653657909893	0.007641262408265138	0.03093610293119003	-0.7560915533831348	0.1298960350859518	0.1298960350858457	0.05869118175113947	0.0001304392008766409	-0.02623524853176737	-0.002429232319332811	-0.1379005572289053	0.05664584920098577	-0.007752365439719095	-0.1128187525975826	0.1085690031319036	-0.007744187951246611	0.2312348421843834	-12.40376016628965	2.654935438055015	2.412274613220461	1.771183944813867	-705.8938135664559	-49.17196017771042	-23.45026267903748	0.1411254422434158	0.1366599469927256	0.04413546648168894	-0.5061030638362254	-0.009642220240511942	-0.0743187675867721	0.5276168846109766	-0.2698122624630574	-0.2698122624630556	-0.1114938865162948	0.001439669672408544	0.06711791929912812	0.01646973137338328	1.304336910390936e-09	-2.261126004704086e-09	-3.702787692896263e-09	-3.340899916896596e-09	3.222373595483061e-09	7.043641625741614e-10	-2.463901993785052e-10
0.51	0.03588781051141766	0.007471697717513705	0.919162701767174	0.3407737759510408	-0.243112624700791	-0.3098945837379469	-0.6819726150264558	0.3073797523326572	0.3073797523326757	-0.04471505224140878	-0.1744542275746486	-0.01326683121038588	0.05055097405686218	0.1569937722845078	-0.08341363681701683	-0.008944648510932969	0.01022786118488682	0.007552922471733332	0.03016619809721585	-0.750492347235976	0.1271490368338962	0.1271490368338408	0.05758151909053029	0.000134532483774791	-0.02554124158513364	-0.002247095414728783	-0.1404971499147412	0.05746920650530973	-0.007775906495406787	-0.1114207778932864	0.1075231325093076	-0.007328433186812344	0.234389780524463	-12.75035919780432	2.527963905404542	2.440622935729567	1.748159506938415	-706.5774405924142	-49.11964415941761	-23.46050422239173	0.1285511503297586	0.1445413692677036	0.04581370066606602	-0.5086374560670469	-0.0080531308644447	-0.07909965926333093	0.5904880744521752	-0.2809561898095824	-0.2809561898019702	-0.1111307475989504	0.0002182424679997661	0.07138811634237011	0.01980919287254193	1.437679054946704e-09	-1.728384836392769e-09	-3.741096728393296e-09	-3.368021274876009e-09	3.2641070776208e-09	7.789482341797641e-10	-1.352385717915585e-10
0.52	0.03746414431922262	0.00664492958352038	0.919075603449324	0.340850279900705	-0.2430374743636914	-0.3095969001504229	-0.6894471398689629	0.3086368722804937	0.3086368722804727	-0.04414485676360867	-0.1744528077898606	-0.01351863258436939	0.0505295343986571	0.1582609394320438	-0.08192635826631842	-0.008470747822952073	0.005053678636546946	0.007479652515016148	0.02936536054481399	-0.7443165173014593	0.1242495352525292	0.1242495352525244	0.05645472475928548	0.0001515891614542507	-0.02481339327862615	-0.002036017595381215	-0.1430937426005926	0.05829256380960857	-0.007799447550932314	-0.1100228031889957	0.1064772618867018	-0.006912678422410005	0.2375447188645399	-13.09913626917811	2.40129797393358	2.46900907098178	1.720990567159943	-707.2985505546282	-49.07134337800206	-23.4703683919988	0.1266633633292278	0.1530126507377529	0.04926133734554879	-0.5292044946617563	-0.006628224277572371	-0.08050531127230919	0.6429416420825582	-0.3003129283253514	-0.3003129283253589	-0.1149202206433922	0.004032348628664446	0.07388619127379281	0.02225791432207233	1.602401094499834e-09	-1.180708255792104e-09	-3.844274495548641e-09	-3.41333411972913e-09	3.308147452824086e-09	9.538671808144869e-10	-1.427031914299852e-11
0.53	0.03905273053387363	0.005833425701220972	0.9189933689921159	0.3408745446971211	-0.2429629333329808	-0.3093074502384245	-0.6968570353580308	0.3098641957988834	0.3098641957988301	-0.04358591734701471	-0.174451191745528	-0.01376302264592742	0.05051038728439557	0.1594387233273239	-0.08036240738898395	-0.007972042313809888	-0.0002133040369213759	0.007435973135558496	0.02851020462969529	-0.7375676807084566	0.1211842808199479	0.121184280819922	0.05534012102384655	0.0001681145291320122	-0.02406315968128624	-0.00178494811748706	-0.1455269609368643	0.0590588504666222	-0.007826502249645756	-0.1087733922008991	0.105567836575128	-0.006529167141042545	0.2405709466739938	-13.40512824894208	2.283494764890452	2.493297136659342	1.693401052072505	-707.9910938970527	-49.02761919411645	-23.479850091698	0.1106986052818556	0.159887239300156	0.05079101967008472	-0.5273330035852962	-0.00212439713165706	-0.09018270625701705	0.7050896385390442	-0.3142648512563148	-0.3142648512594926	-0.1086864545669691	-6.383428968845337e-05	0.0758109779136177	0.02780060665628899	1.691419748625394e-09	-7.126455629804158e-10	-3.845222169533849e-09	-3.411164143227363e-09	3.286775890536478e-09	1.055844479551483e-09	7.502013421980052e-11
0.54	0.04065256712800523	0.005037921514308647	0.9189162447623936	0.3408457620968179	-0.2428886064165427	-0.3090269842805036	-0.7041965954870425	0.3110599401428319	0.3110599401427666	-0.04303791516868052	-0.1744495157405597	-0.01399986656472212	0.05049400469333939	0.1605110153287893	-0.07872641918890141	-0.007448702325770131	-0.005555800706223687	0.007436829662040222	0.02756856972955817	-0.7302494452902535	0.1179337003660952	0.117933700366048	0.05426727710548799	0.0001635812917308403	-0.02330416472596545	-0.001483112954266413	-0.1479601792731556	0.05982513712360994	-0.007853556948192465	-0.1075239812128062	0.104658411263546	-0.006145655859707271	0.2435971744834409	-13.71352381377152	2.165982016302444	2.51768783475519	1.661515264494491	-708.7247810502035	-48.98859830753193	-23.48894943111981	0.1055649845663442	0.167420115287301	0.0541882331250584	-0.544307293828538	0.002278956910317646	-0.09780110827599431	0.7568214071226423	-0.3373781325796482	-0.3373781325796587	-0.1065682572272898	-0.000179372387128954	0.07563846286989162	0.03241105138735415	1.696681465682151e-09	-3.326663204884477e-10	-3.733064208522309e-09	-3.356459981396786e-09	3.193033674003627e-09	1.077120380614397e-09	1.292628096494168e-10
0.55	0.04226264385444361	0.004259133845334853	0.9188444735411476	0.3407631605791117	-0.2428141110322695	-0.3087562821798207	-0.7114601868108685	0.3122223345499368	0.3122223345499787	-0.0425005455431399	-0.1744479566564755	-0.01422905288917634	0.05048083679721234	0.1614915177884779	-0.07701936735310026	-0.00690164249797912	-0.01098004879583757	0.007463475848335473	0.0265646641221427	-0.7223800342670077	0.1145211103693354	0.1145211103693431	0.05320213865043813	0.0001471822309394025	-0.02252976744954339	-0.001147841087656682	-0.150299499945313	0.06054881624654058	-0.007881287875992763	-0.1063216433111969	0.1037918772452425	-0.005774630650205159	0.2465385567088026	-14.00515512050409	2.051876041126317	2.540485253173196	1.624928212603442	-709.3979193966247	-48.94815855188642	-23.49766770702264	0.09237077642527221	0.1741091401319125	0.05555039978854024	-0.5438156162746555	0.003042074707630378	-0.1027626068576987	0.8153187312035042	-0.3468100677768645	-0.3468100677686542	-0.1071632689370759	-0.002528842949821376	0.07884043048703324	0.03447945452597689	1.770427563933775e-09	8.848747866440429e-11	-3.673121989752385e-09	-3.338209589934428e-09	3.120349912916786e-09	1.077360875205381e-09	2.116998241684475e-10
0.5600000000000001	0.04388214118542796	0.003497768979200119	0.9187782900266163	0.3406258501705544	-0.2427393122610965	-0.3084958345991921	-0.7186424204682063	0.3133498809301606	0.3133498809303188	-0.04197396262800115	-0.1744465932970126	-0.01445039522677452	0.05047110045979679	0.1623951362383784	-0.07524185862108947	-0.006331160982846733	-0.01649757887532247	0.007497507043384062	0.02551766571938926	-0.7139779119926396	0.1109640949904676	0.1109640949905301	0.05210993502365114	0.0001244363691621942	-0.02173536735477451	-0.0007968012119211694	-0.1526388206174979	0.06127249536943648	-0.007909018803678381	-0.105119305409593	0.1029253432269284	-0.005403605440744719	0.2494799389341548	-14.29942816308456	1.938043032427025	2.56345570355439	1.583965946247034	-710.1160156233655	-48.91309010395476	-23.50600844434175	0.09018818260878395	0.1815114945291669	0.05887257059332841	-0.5629636918027299	0.003755958660998664	-0.1064196673435909	0.8633636573471045	-0.366263209001272	-0.3662632090012617	-0.1119812915746917	-0.001448732584290513	0.07963902653918334	0.03556465321249455	1.926354919619235e-09	5.590507458103154e-10	-3.675838661672399e-09	-3.363703722913932e-09	3.072936298365158e-09	1.052358882030048e-09	3.279700455947743e-10
